<?xml version="1.0" standalone="no"?>
<!DOCTYPE svg PUBLIC "-//W3C//DTD SVG 20010904//EN"
 "http://www.w3.org/TR/2001/REC-SVG-20010904/DTD/svg10.dtd">
<svg version="1.0" xmlns="http://www.w3.org/2000/svg"
 width="2048.000000pt" height="2048.000000pt" viewBox="0 0 2048.000000 2048.000000"
 preserveAspectRatio="xMidYMid meet">

<g transform="translate(0.000000,2048.000000) scale(0.100000,-0.100000)"
fill="#000000" stroke="none">
<path d="M0 10240 l0 -10240 10240 0 10240 0 0 10240 0 10240 -10240 0 -10240
0 0 -10240z m20450 10207 c0 -2 -761 -763 -1690 -1692 l-1690 -1690 -6833 -5
-6832 -5 -3 -2307 -2 -2308 2280 0 2280 0 0 -2242 0 -2242 -3942 -3943 c-2168
-2168 -3946 -3949 -3950 -3958 -5 -8 -14 -15 -21 -15 -9 0 -12 2271 -12 10198
0 5608 3 10199 7 10202 6 5 20408 12 20408 7z m-3390 -5708 l0 -2299 -2290 0
-2290 0 0 -4504 0 -4504 -32 -3 c-18 -2 -1034 -4 -2258 -4 l-2225 0 -3 2258
c-1 1242 2 2265 6 2273 5 9 968 975 2141 2149 1427 1426 2131 2137 2126 2146
-6 8 -4 10 4 4 17 -10 275 250 265 267 -4 7 -3 8 4 4 16 -10 696 669 687 685
-5 8 -4 10 4 5 8 -5 429 409 1191 1171 649 648 1180 1182 1180 1186 0 5 -5 5
-12 1 -7 -4 -8 -3 -4 5 4 6 12 9 17 5 13 -8 1290 1266 1282 1279 -3 6 -2 7 4
4 13 -8 167 149 158 162 -3 7 0 8 9 5 9 -3 16 -1 16 6 0 6 4 8 10 5 6 -4 10
-797 10 -2306z m-1440 897 c0 -2 -8 -10 -17 -17 -16 -13 -17 -12 -4 4 13 16
21 21 21 13z m-2140 -2140 c0 -2 -8 -10 -17 -17 -16 -13 -17 -12 -4 4 13 16
21 21 21 13z m-320 -320 c0 -2 -8 -10 -17 -17 -16 -13 -17 -12 -4 4 13 16 21
21 21 13z m6234 -11647 c21 -66 74 -154 131 -218 61 -67 236 -171 289 -171 9
0 16 -8 16 -17 0 -13 -17 -23 -61 -37 -66 -21 -154 -74 -218 -131 -67 -61
-171 -236 -171 -289 0 -9 -8 -16 -17 -16 -13 0 -23 17 -37 61 -21 66 -74 154
-131 218 -61 67 -236 171 -289 171 -9 0 -16 8 -16 18 0 12 17 22 61 36 66 21
154 74 218 131 67 61 171 236 171 289 0 9 8 16 18 16 12 0 22 -17 36 -61z"/>
</g>
</svg>
